<svg width="96" height="96" viewBox="0 0 96 96" fill="none" xmlns="http://www.w3.org/2000/svg">
<path d="M42.4 55.2L33.7 46.5C32.9667 45.7667 32.0667 45.4 31 45.4C29.9333 45.4 29 45.8 28.2 46.6C27.4667 47.3333 27.1 48.2667 27.1 49.4C27.1 50.5333 27.4667 51.4667 28.2 52.2L39.6 63.6C40.3333 64.3333 41.2667 64.7 42.4 64.7C43.5333 64.7 44.4667 64.3333 45.2 63.6L67.9 40.9C68.6333 40.1667 69 39.2667 69 38.2C69 37.1333 68.6 36.2 67.8 35.4C67.0667 34.6667 66.1333 34.3 65 34.3C63.8667 34.3 62.9333 34.6667 62.2 35.4L42.4 55.2ZM48 88C42.4667 88 37.2667 86.9493 32.4 84.848C27.5333 82.7493 23.3 79.9 19.7 76.3C16.1 72.7 13.2507 68.4667 11.152 63.6C9.05067 58.7333 8 53.5333 8 48C8 42.4667 9.05067 37.2667 11.152 32.4C13.2507 27.5333 16.1 23.3 19.7 19.7C23.3 16.1 27.5333 13.2493 32.4 11.148C37.2667 9.04933 42.4667 8 48 8C53.5333 8 58.7333 9.04933 63.6 11.148C68.4667 13.2493 72.7 16.1 76.3 19.7C79.9 23.3 82.7493 27.5333 84.848 32.4C86.9493 37.2667 88 42.4667 88 48C88 53.5333 86.9493 58.7333 84.848 63.6C82.7493 68.4667 79.9 72.7 76.3 76.3C72.7 79.9 68.4667 82.7493 63.6 84.848C58.7333 86.9493 53.5333 88 48 88Z" fill="#95E41C"/>
</svg>
